<?xml version="1.0" encoding="UTF-8"?>
<svg id="Layer_2" xmlns="http://www.w3.org/2000/svg" width="128" height="128" viewBox="0 0 83.99 57.97">
  <defs>
    <style>
      .cls-1 {
        fill: #f9c5d1;
      }

      .cls-2 {
        fill: #a66a3d;
      }

      .cls-3 {
        fill: #d3d3d3;
      }
    </style>
  </defs>
  <g id="Layer_1-2" data-name="Layer_1">
    <g>
      <path class="cls-1" d="M76.43,22.65c-2.75.34-5.03-.27-5.6.13.92,10.09-3.05,10.96-1.02.25-6.93-1.48-1.52,4.99-4.33,9.27-2.15,0,.15-8.61-.25-9.02-.54-.54-3.24-.48-3.57-.25-.64.45,1,11.06-.76,11.05-2.14-2.43.1-10.29-.25-10.8-.37-.54-3.75-.49-4.07-.25-.77.54,1.15,10.67-.76,13.34-1.03-1.74.52-12.79-.25-13.34-.3-.21-3.27-.21-3.57,0-.89.63,1.24,12.39-.76,15.37-1.12-1.97.64-14.74-.25-15.37-.3-.21-3.27-.21-3.56,0-1.02.72,1.34,14.38-.76,17.65-.98-2.57.46-16.6-.25-17.4-.47-.53-3.23-.49-3.57-.25-1.17.83,1.66,15.89-1.27,20.19-1.35-3.17,1.3-18.77.25-19.94-.5-.56-3.77-.47-4.07-.25-1.04.73,1.35,15.32-.76,17.91-1.23-2.24.78-17.18-.25-17.91-.3-.21-3.27-.21-3.56,0-.94.66,1.28,13.06-.76,16.13-.97-2.4.45-15.09-.25-15.88-.47-.53-3.23-.49-3.57-.25-.8.57,1.17,11.65-.76,13.84-.87-1.98.26-12.96-.25-13.59-.45-.55-3.76-.48-4.07-.25.47,15.67-1.49,15.66-1.02,0-.38-.26-2.78-.09-3.57-.13l-.76,10.16-.25-10.16c-.79.04-3.19-.14-3.57.13.48,10.29-1.46,10.95-1.02.25-1.46-.74-4.23-.23-7.08-.53-3.88,3.51-6.19,7.61-6.19,12.02,0,12.81,18.8,23.19,41.99,23.19s41.99-10.38,41.99-23.19c0-4.54-2.43-8.76-6.51-12.33-.35.07-.6.15-1.05.2Z"/>
      <path class="cls-1" d="M7.93,22.4c.25.04,4.17-.49,4.84-.51l.51-2.54c-2.18-.07-4.57-.47-6.88-.25-1.02-.35-.69-.68-.76-.76,6.21-.06,7.89.79,7.89-2.79.98,4.29,4.79,3.85,4.58-.25,1.99,1.14-1.13,4.2,4.33,2.67.55-5.88.5.08,1.78.38,4.93,1.14,2.67-6.99,5.09,0,4.65,1.09,1.91-6.96,4.58,0,7.35-.89,7.02,1.76,8.15-3.05.9,4.32,4.43,4.22,4.58,0,.73,4.19,4.53,4.03,4.58,0,.9,4.32,4.43,4.22,4.58,0,3.53.83-2.4,4.2,4.84,2.41.61-5.49.61.36,1.78.64,4.65,1.09,1.91-6.96,4.58,0,4.54.35,1.49-3.11,3.06-3.05,2.34,2.91-2.35,3.28,6.88,3.05-2.12,2.03-6.51-1.19-6.62,3.18,3,2.31,5.54-1.17,8.36-.72,3.17-2.1,5.31-5.38,5.31-9.19,0-6.4-5.79-11.59-12.92-11.59-6.32,0-11.56,4.08-12.68,9.46-9.8-.05-22.61-.05-32.78,0C24.48,4.08,19.24,0,12.92,0,5.79,0,0,5.19,0,11.59c0,3.61,1.91,6.76,4.8,8.87.5-.02,1.04.01,1.6.15,1.37.35.19,1.55,1.53,1.78Z"/>
      <path class="cls-2" d="M14.29,22.14v-3.05c-1.25-.07-.96.26-1.02.25l-.51,2.54c.08,0-.28.37,1.53.25Z"/>
      <path class="cls-2" d="M18.11,33.07l.76-10.16c-.32-.02-.7-.02-1.02,0l.25,10.16Z"/>
      <path class="cls-3" d="M17.86,21.76c2.17-2.46-1.15-2.52-3.57-2.67v3.05c1.01-.06,3.03.23,3.57-.38Z"/>
      <path class="cls-2" d="M77.47,22.45c2.49-.48,2.73-1.23,1.75-1.58-.19-.07-.37-.06-.55-.09-.58.39-1.13.81-1.78,1.1.22.18.37.38.58.56Z"/>
      <path class="cls-2" d="M4.8,20.47c-2.24.08-3.5,1.46.32,2.18.36.07.71.07,1.07.11.31-.29.56-.59.9-.87-.83-.38-1.57-.89-2.29-1.42Z"/>
      <path class="cls-2" d="M13.27,23.29c-.44,10.7,1.5,10.04,1.02-.25.38-.26,2.78-.09,3.57-.13.32-.02.7-.02,1.02,0,.79.04,3.19-.14,3.57.13-.47,15.66,1.49,15.67,1.02,0,.32-.22,3.63-.3,4.07.25.51.63-.61,11.61.25,13.59,1.94-2.19-.04-13.28.76-13.84.33-.24,3.1-.27,3.57.25.7.79-.72,13.47.25,15.88,2.04-3.07-.17-15.47.76-16.13.3-.21,3.27-.21,3.56,0,1.04.73-.98,15.66.25,17.91,2.11-2.59-.27-17.18.76-17.91.31-.22,3.58-.3,4.07.25,1.04,1.17-1.6,16.77-.25,19.94,2.93-4.3.1-19.37,1.27-20.19.33-.24,3.1-.27,3.57.25.71.8-.73,14.83.25,17.4,2.11-3.27-.26-16.93.76-17.65.3-.21,3.27-.21,3.56,0,.89.63-.86,13.39.25,15.37,2.01-2.98-.13-14.74.76-15.37.3-.21,3.27-.21,3.57,0,.77.54-.77,11.6.25,13.34,1.92-2.67,0-12.79.76-13.34.33-.23,3.71-.28,4.07.25.35.51-1.89,8.37.25,10.8,1.76,0,.13-10.6.76-11.05.32-.23,3.02-.29,3.57.25.4.4-1.9,9.01.25,9.02,2.81-4.28-2.6-10.75,4.33-9.27-2.03,10.7,1.94,9.83,1.02-.25.57-.4,2.85.21,5.6-.13.45-.06.7-.13,1.05-.2-.21-.18-.36-.38-.58-.56.65-.3,1.2-.72,1.78-1.1-2.83-.45-5.36,3.03-8.36.72.11-4.37,4.5-1.14,6.62-3.18-9.22.24-4.53-.14-6.88-3.05-1.57-.06,1.48,3.4-3.06,3.05-2.67-6.96.07,1.09-4.58,0-1.17-.27-1.17-6.13-1.78-.64-7.24,1.79-1.3-1.58-4.84-2.41-.16,4.22-3.68,4.32-4.58,0-.05,4.03-3.86,4.19-4.58,0-.16,4.22-3.68,4.32-4.58,0-1.13,4.81-.8,2.16-8.15,3.05-2.67-6.96.07,1.09-4.58,0-2.43-6.99-.17,1.14-5.09,0-1.28-.3-1.23-6.26-1.78-.38-5.46,1.54-2.34-1.53-4.33-2.67.2,4.11-3.6,4.54-4.58.25,0,3.58-1.68,2.73-7.89,2.79.07.08-.26.42.76.76,2.31-.22,4.7.18,6.88.25.06,0-.23-.33,1.02-.25,2.41.14,5.74.21,3.57,2.67-.54.61-2.56.32-3.57.38-1.81.11-1.45-.26-1.53-.25-.66.02-4.59.55-4.84.51-1.34-.23-.15-1.43-1.53-1.78-.56-.14-1.09-.17-1.6-.15.72.53,1.46,1.04,2.29,1.42-.34.28-.59.59-.9.87,2.85.3,5.62-.21,7.08.53ZM66.5,19.09c5.17-1.85,2.8,5.08-.25,2.92-.17-.12-.08-2.8.25-2.92ZM61.91,19.09c4.16-1.49,4.86,4.08,0,3.05-.78-.17-.26-2.96,0-3.05ZM47.4,19.22c2.94.28,5.29-.26,8.15-.13,1.39.06.96.25,1.02.25,3.46.29,4.03-.75,4.07,1.14.06,2.48-3.2,1.34-4.07,1.4-1.27.08-.97,0-1.02,0-6.12.16-9.27,1.4-8.15-2.67ZM45.11,19.09c2.82.29,1.34,4.26-2.04,3.05-.45-.16-1.19-3.38,2.04-3.05ZM38.99,19.09c5.17-.87,1.57,4.92-1.27,2.92-.19-.13-.61-2.6,1.27-2.92ZM33.39,19.35c3.54-1.25,4.43,2.36,2.55,2.79-4.02.93-2.92-2.66-2.55-2.79ZM27.03,19.35c.47-.03,1.06-.03,1.53,0,2.63.14,5.55.17,3.57,2.41-1.06,1.2-3.84-.13-4.07-.13-.33,0-.69.02-1.02,0-.21,0-2.53,1.31-3.56.13-1.98-2.25.93-2.27,3.56-2.41ZM19.64,19.09c3.36-.76,3.59,2.69,2.04,3.05-4,.92-3.21-2.78-2.04-3.05Z"/>
      <path class="cls-3" d="M55.55,21.89v-2.79c-2.86-.13-5.21.41-8.15.13-1.12,4.07,2.03,2.82,8.15,2.67Z"/>
      <path class="cls-3" d="M38.99,19.09c-1.89.32-1.46,2.79-1.27,2.92,2.84,2,6.44-3.79,1.27-2.92Z"/>
      <path class="cls-3" d="M61.91,19.09c-.26.09-.78,2.88,0,3.05,4.86,1.03,4.16-4.53,0-3.05Z"/>
      <path class="cls-3" d="M60.64,20.49c-.04-1.9-.62-.86-4.07-1.14v2.54c.87-.05,4.13,1.09,4.07-1.4Z"/>
      <path class="cls-3" d="M27.03,21.63v-2.29c-2.64.14-5.54.17-3.56,2.41,1.04,1.18,3.36-.14,3.56-.13Z"/>
      <path class="cls-3" d="M21.68,22.14c1.55-.36,1.32-3.81-2.04-3.05-1.17.26-1.97,3.97,2.04,3.05Z"/>
      <path class="cls-3" d="M45.11,19.09c-3.23-.33-2.48,2.89-2.04,3.05,3.38,1.21,4.85-2.76,2.04-3.05Z"/>
      <path class="cls-3" d="M32.12,21.76c1.98-2.24-.93-2.27-3.57-2.41l-.51,2.29c.23,0,3.02,1.32,4.07.13Z"/>
      <path class="cls-3" d="M35.94,22.14c1.88-.43.99-4.05-2.55-2.79-.37.13-1.48,3.72,2.55,2.79Z"/>
      <path class="cls-3" d="M66.5,19.09c-.33.12-.42,2.8-.25,2.92,3.06,2.15,5.42-4.78.25-2.92Z"/>
      <path class="cls-2" d="M56.56,21.89v-2.54c-.06,0,.37-.19-1.02-.25v2.79c.05,0-.25.08,1.02,0Z"/>
      <path class="cls-2" d="M28.04,21.63l.51-2.29c-.47-.03-1.06-.03-1.53,0v2.29c.33.02.69,0,1.02,0Z"/>
    </g>
  </g>
</svg>